<?xml version="1.0" encoding="UTF-8" standalone="no"?>
<!DOCTYPE svg PUBLIC "-//W3C//DTD SVG 1.1//EN" "http://www.w3.org/Graphics/SVG/1.1/DTD/svg11.dtd">
<svg width="100%" height="100%" viewBox="0 0 1440 473" version="1.1" xmlns="http://www.w3.org/2000/svg" xmlns:xlink="http://www.w3.org/1999/xlink" xml:space="preserve" xmlns:serif="http://www.serif.com/" style="fill-rule:evenodd;clip-rule:evenodd;stroke-linejoin:round;stroke-miterlimit:1.5;">
    <g id="grid_lines" transform="matrix(0.923077,0,0,0.923077,43.3846,343.393)">
        <g transform="matrix(1,0,0,1,-633.532,-3277)">
            <g transform="matrix(0.692258,0,0,0.674828,879.458,2839.06)">
                <path d="M-423.146,783.534L1830.35,783.534" style="fill:none;stroke:rgb(255,125,54);stroke-width:3.17px;"/>
            </g>
            <g transform="matrix(0.758007,0,0,0.674828,833.698,2618.21)">
                <path d="M-326.074,1008.9L1731.95,1008.9" style="fill:none;stroke:rgb(255,125,54);stroke-width:3.02px;"/>
            </g>
            <g transform="matrix(0.829277,0,0,0.674828,783.902,2397.36)">
                <path d="M-238.003,1243.71L1643.15,1243.71" style="fill:none;stroke:rgb(255,125,54);stroke-width:2.87px;"/>
            </g>
            <g transform="matrix(0.90631,0,0,0.674828,730.08,2176.51)">
                <path d="M-158.387,1487.4L1562.88,1487.4" style="fill:none;stroke:rgb(255,125,54);stroke-width:2.71px;"/>
            </g>
            <g transform="matrix(0.989056,0,0,0.674828,672.265,1955.65)">
                <path d="M-86.682,1739.4L1490.58,1739.4" style="fill:none;stroke:rgb(255,125,54);stroke-width:2.56px;"/>
            </g>
            <g transform="matrix(1.07731,0,0,0.674828,610.601,1734.8)">
                <path d="M-22.342,1999.13L1425.71,1999.13" style="fill:none;stroke:rgb(255,125,54);stroke-width:2.41px;"/>
            </g>
            <g transform="matrix(1.17071,0,0,0.674828,545.348,1513.95)">
                <path d="M35.178,2266.01L1367.71,2266.01" style="fill:none;stroke:rgb(255,125,54);stroke-width:2.27px;"/>
            </g>
            <g transform="matrix(1.26869,0,0,0.674828,476.885,1293.09)">
                <path d="M86.425,2539.49L1316.04,2539.49" style="fill:none;stroke:rgb(255,125,54);stroke-width:2.13px;"/>
            </g>
            <g transform="matrix(1.37059,0,0,0.674828,405.692,1072.24)">
                <path d="M131.943,2818.97L1270.14,2818.97" style="fill:none;stroke:rgb(255,125,54);stroke-width:2.01px;"/>
            </g>
            <g transform="matrix(1.4756,0,0,0.674828,332.317,851.389)">
                <path d="M172.278,3103.9L1229.47,3103.9" style="fill:none;stroke:rgb(255,125,54);stroke-width:1.89px;"/>
            </g>
            <g transform="matrix(1.48014,0,0,0.674828,322.807,630.536)">
                <path d="M178.175,3393.7L1232.13,3393.7" style="fill:none;stroke:rgb(255,125,54);stroke-width:1.88px;"/>
            </g>
        </g>
        <g transform="matrix(6.12323e-17,-1,1,6.12323e-17,-1230,-108.972)">
            <g transform="matrix(1.51636,0,0,1,300.508,3427)">
                <path d="M-58.061,-684L-24.711,-757.649" style="fill:none;stroke:rgb(255,125,54);stroke-width:1.69px;"/>
            </g>
            <g transform="matrix(1.51636,0,0,1,300.508,3127)">
                <path d="M-123.691,-384L-24.711,-569.097" style="fill:none;stroke:rgb(255,125,54);stroke-width:1.69px;"/>
            </g>
            <g transform="matrix(1.51636,0,0,1,300.508,2799.73)">
                <path d="M-232.631,-56.727L-24.711,-363.403" style="fill:none;stroke:rgb(255,125,54);stroke-width:1.69px;"/>
            </g>
            <g transform="matrix(1.51636,0,0,1,300.508,2472.45)">
                <path d="M-362.636,224.755L-24.711,-157.709" style="fill:none;stroke:rgb(255,125,54);stroke-width:1.69px;"/>
            </g>
            <g transform="matrix(1.51636,0,0,1,300.508,2145.18)">
                <path d="M-362.636,305.715L-24.711,47.984" style="fill:none;stroke:rgb(255,125,54);stroke-width:1.69px;"/>
            </g>
            <g transform="matrix(1.51636,0,0,1,300.508,1817.91)">
                <path d="M-362.636,386.675L-24.711,253.678" style="fill:none;stroke:rgb(255,125,54);stroke-width:1.69px;"/>
            </g>
            <g transform="matrix(1.51636,0,0,1,300.508,1490.64)">
                <path d="M-362.636,467.636L-24.711,459.371" style="fill:none;stroke:rgb(255,125,54);stroke-width:1.69px;"/>
            </g>
            <g transform="matrix(1.51636,0,0,1,300.508,1163.36)">
                <path d="M-362.636,548.596L-24.711,665.065" style="fill:none;stroke:rgb(255,125,54);stroke-width:1.69px;"/>
            </g>
            <g transform="matrix(1.51636,0,0,1,300.508,836.091)">
                <path d="M-362.636,629.556L-24.711,870.758" style="fill:none;stroke:rgb(255,125,54);stroke-width:1.69px;"/>
            </g>
            <g transform="matrix(1.51636,0,0,1,300.508,508.818)">
                <path d="M-362.636,710.517L-24.711,1076.45" style="fill:none;stroke:rgb(255,125,54);stroke-width:1.69px;"/>
            </g>
            <g transform="matrix(1.51636,0,0,1,300.508,181.545)">
                <path d="M-218.024,1001.46L-24.711,1282.15" style="fill:none;stroke:rgb(255,125,54);stroke-width:1.69px;"/>
            </g>
            <g transform="matrix(1.51636,0,0,1,300.508,-145.727)">
                <path d="M-112.081,1328.73L-24.711,1487.84" style="fill:none;stroke:rgb(255,125,54);stroke-width:1.69px;"/>
            </g>
            <g transform="matrix(1.51636,0,0,1,300.508,-473)">
                <path d="M-41.847,1656L-24.711,1693.53" style="fill:none;stroke:rgb(255,125,54);stroke-width:1.69px;"/>
            </g>
        </g>
    </g>
</svg>
