<svg width="1440" height="473" viewBox="0 0 1440 473" fill="none" xmlns="http://www.w3.org/2000/svg">
<mask id="mask0_657_3507" style="mask-type:luminance" maskUnits="userSpaceOnUse" x="0" y="0" width="1440" height="473">
<path d="M1440 0H0V472.32H1440V0Z" fill="white"/>
</mask>
<g mask="url(#mask0_657_3507)">
<g style="mix-blend-mode:overlay">
<path d="M-75.2254 13.1328H-103.91V15.1488H-78.6238L-75.2542 13.1328M38.2754 13.1328H-71.3085L-74.6782 15.1488H35.3954L38.3043 13.1328M151.834 13.1328H41.8466L38.9379 15.1488H149.415L151.834 13.1328ZM265.335 13.1328H154.973L152.554 15.1488H263.405L265.335 13.1328ZM378.807 13.1328H268.128L266.199 15.1488H377.367L378.807 13.1328ZM492.25 13.1328H381.283L379.843 15.1488H491.299L492.279 13.1328M605.693 13.1328H494.525L493.546 15.1488H605.203L605.693 13.1328ZM719.05 13.1328H607.767L607.277 15.1488H719.05V13.1328ZM832.349 13.1328H721.066V15.1488H832.839L832.349 13.1328ZM945.591 13.1328H834.423L834.912 15.1488H946.57L945.591 13.1328ZM1058.8 13.1328H947.837L948.816 15.1488H1060.27L1058.83 13.1328M1172.02 13.1328H1061.34L1062.78 15.1488H1173.95L1172.02 13.1328ZM1285.17 13.1328H1174.81L1176.74 15.1488H1287.59L1285.17 13.1328ZM1398.3 13.1328H1288.31L1290.73 15.1488H1401.21L1398.3 13.1328ZM1511.42 13.1328H1401.84L1404.75 15.1488H1514.82L1511.45 13.1328M1544.05 13.1328H1515.37L1518.74 15.1488H1544.03V13.1328" fill="#FF7D36"/>
</g>
<g style="mix-blend-mode:overlay">
<path d="M-114.048 36.2881H-144.144V38.3041H-117.446L-114.077 36.2881M5.01118 36.2881H-110.131L-113.501 38.3041H2.1312L5.03993 36.2881M124.099 36.2881H8.58237L5.67354 38.3041H121.68L124.099 36.2881ZM243.158 36.2881H127.267L124.848 38.3041H241.229L243.158 36.2881ZM362.189 36.2881H245.952L244.022 38.3041H360.749L362.189 36.2881ZM481.19 36.2881H364.666L363.226 38.3041H480.211L481.19 36.2881ZM600.134 36.2881H483.408L482.429 38.3041H599.616L600.106 36.2881M718.992 36.2881H602.179L601.69 38.3041H718.992V36.2881ZM837.821 36.2881H721.008V38.3041H838.31L837.821 36.2881ZM956.621 36.2881H839.894L840.384 38.3041H957.571L956.592 36.2881M1075.33 36.2881H958.81L959.789 38.3041H1076.77L1075.33 36.2881ZM1194.05 36.2881H1077.81L1079.25 38.3041H1195.98L1194.05 36.2881ZM1312.73 36.2881H1196.84L1198.77 38.3041H1315.15L1312.73 36.2881ZM1431.42 36.2881H1315.87L1318.29 38.3041H1434.3L1431.39 36.2881M1550.04 36.2881H1434.9L1437.81 38.3041H1553.44L1550.07 36.2881M1584.09 36.2881H1553.99L1557.36 38.3041H1584.06V36.2881" fill="#FF7D36"/>
</g>
<g style="mix-blend-mode:overlay">
<path d="M-156.873 61.8047H-188.524V63.8207H-160.272L-156.902 61.8047M-31.7084 61.8047H-152.956L-156.326 63.8207H-34.5884L-31.6796 61.8047M93.4852 61.8047H-28.166L-31.0748 63.8207H91.0659L93.4852 61.8047ZM218.65 61.8047H96.6244L94.2052 63.8207H216.692L218.621 61.8047M343.757 61.8047H221.415L219.485 63.8207H342.317L343.757 61.8047ZM468.864 61.8047H346.234L344.794 63.8207H467.914L468.893 61.8047M593.971 61.8047H471.14L470.16 63.8207H593.482L593.971 61.8047ZM718.992 61.8047H596.045L595.556 63.8207H718.992V61.8047ZM843.956 61.8047H721.008V63.8207H844.445L843.956 61.8047ZM968.861 61.8047H846.029L846.519 63.8207H969.84L968.861 61.8047ZM1093.71 61.8047H971.079L972.058 63.8207H1095.18L1093.74 61.8047M1218.56 61.8047H1096.21L1097.65 63.8207H1220.49L1218.56 61.8047ZM1343.38 61.8047H1221.35L1223.28 63.8207H1345.77L1343.35 61.8047M1468.14 61.8047H1346.49L1348.91 63.8207H1471.05L1468.14 61.8047ZM1592.93 61.8047H1471.68L1474.59 63.8207H1596.33L1592.96 61.8047M1628.52 61.8047H1596.87L1600.24 63.8207H1628.5V61.8047" fill="#FF7D36"/>
</g>
<g style="mix-blend-mode:overlay">
<path d="M-204.307 90.0859H-237.687V92.1019H-207.706L-204.336 90.0859M-72.3745 90.0859H-200.39L-203.76 92.1019H-75.2545L-72.3457 90.0859M59.6159 90.0859H-68.8033L-71.7121 92.1019H57.1967L59.6159 90.0859ZM191.549 90.0859H62.7551L60.3359 92.1019H189.619L191.549 90.0859ZM323.453 90.0859H194.314L192.384 92.1019H321.984L323.424 90.0859M455.299 90.0859H325.901L324.461 92.1019H454.349L455.328 90.0859M587.174 90.0859H457.574L456.595 92.1019H586.685L587.174 90.0859ZM718.963 90.0859H589.248L588.758 92.1019H718.963V90.0859ZM850.694 90.0859H720.979V92.1019H851.184L850.694 90.0859ZM982.368 90.0859H852.768L853.257 92.1019H983.347L982.368 90.0859ZM1114.01 90.0859H984.614L985.594 92.1019H1115.48L1114.04 90.0859M1245.66 90.0859H1116.52L1117.96 92.1019H1247.56L1245.63 90.0859M1377.22 90.0859H1248.42L1250.35 92.1019H1379.64L1377.22 90.0859ZM1508.77 90.0859H1380.36L1382.77 92.1019H1511.68L1508.77 90.0859ZM1640.33 90.0859H1512.29L1515.2 92.1019H1643.7L1640.33 90.0859ZM1677.63 90.0859H1644.25L1647.62 92.1019H1677.6V90.0859" fill="#FF7D36"/>
</g>
<g style="mix-blend-mode:overlay">
<path d="M-256.691 124H-292V126.016H-260.09L-256.72 124M-117.213 124H-252.803L-256.173 126.016H-120.122L-117.213 124ZM22.2944 124H-113.67L-116.579 126.016H19.8752L22.2944 124ZM161.802 124H25.4624L23.0432 126.016H159.872L161.802 124ZM301.28 124H164.595L162.666 126.016H299.84L301.28 124ZM440.729 124H303.786L302.346 126.016H439.779L440.758 124M580.15 124H442.976L441.997 126.016H579.632L580.122 124M719.456 124H582.195L581.706 126.016H719.456V124ZM858.733 124H721.472V126.016H859.222L858.733 124ZM997.981 124H860.806L861.296 126.016H998.931L997.952 124M1137.14 124H1000.2L1001.18 126.016H1138.61L1137.17 124M1276.33 124H1139.65L1141.09 126.016H1278.26L1276.33 124ZM1415.47 124H1279.13L1281.06 126.016H1417.88L1415.47 124ZM1554.6 124H1418.63L1421.05 126.016H1557.51L1554.6 124ZM1693.7 124H1558.11L1561.02 126.016H1697.1L1693.73 124M1732.96 124H1697.68L1701.05 126.016H1732.96V124Z" fill="#FF7D36"/>
</g>
<g style="mix-blend-mode:overlay">
<path d="M-316.454 156.988H-353.923V159.004H-319.852L-316.483 156.988M-168.508 156.988H-312.566L-315.936 159.004H-171.388L-168.48 156.988M-20.5053 156.988H-164.937L-167.846 159.004H-22.9245L-20.5053 156.988ZM127.469 156.988H-17.3373L-19.7565 159.004H125.54L127.469 156.988ZM275.415 156.988H130.263L128.333 159.004H273.975L275.415 156.988ZM423.331 156.988H277.92L276.48 159.004H422.381L423.36 156.988M571.22 156.988H425.578L424.599 159.004H570.701L571.191 156.988M718.992 156.988H573.264L572.775 159.004H718.992V156.988ZM866.736 156.988H721.008V159.004H867.226L866.736 156.988ZM1014.45 156.988H868.81L869.3 159.004H1015.4L1014.42 156.988M1162.08 156.988H1016.67L1017.65 159.004H1163.55L1162.11 156.988M1309.74 156.988H1164.59L1166.03 159.004H1311.67L1309.74 156.988ZM1457.34 156.988H1312.53L1314.46 159.004H1459.76L1457.34 156.988ZM1604.94 156.988H1460.51L1462.93 159.004H1607.85L1604.94 156.988ZM1752.51 156.988H1608.45L1611.36 159.004H1755.91L1752.54 156.988M1793.92 156.988H1756.45L1759.82 159.004H1793.89V156.988" fill="#FF7D36"/>
</g>
<g style="mix-blend-mode:overlay">
<path d="M-383.414 196.906H-423.302V198.922H-386.783L-383.414 196.906ZM-225.849 196.906H-379.468L-382.838 198.922H-228.729L-225.82 196.906M-68.2842 196.906H-222.307L-225.215 198.922H-70.7322L-68.313 196.906M89.223 196.906H-65.145L-67.5642 198.922H87.2934L89.223 196.906ZM246.73 196.906H92.0167L90.087 198.922H245.29L246.73 196.906ZM404.209 196.906H249.207L247.767 198.922H403.229L404.209 196.906ZM561.629 196.906H406.426L405.447 198.922H561.111L561.601 196.906M718.993 196.906H563.674L563.185 198.922H718.964V196.906M876.269 196.906H720.98V198.922H876.759L876.269 196.906ZM1033.55 196.906H878.343L878.833 198.922H1034.5L1033.52 196.906M1190.74 196.906H1035.74L1036.71 198.922H1192.18L1190.74 196.906ZM1347.93 196.906H1193.21L1194.65 198.922H1349.86L1347.93 196.906ZM1505.09 196.906H1350.72L1352.65 198.922H1507.51L1505.09 196.906ZM1662.25 196.906H1508.23L1510.65 198.922H1665.13L1662.22 196.906M1819.35 196.906H1665.74L1668.64 198.922H1822.75L1819.38 196.906M1863.22 196.906H1823.33L1826.7 198.922H1863.22V196.906Z" fill="#FF7D36"/>
</g>
<g style="mix-blend-mode:overlay">
<path d="M-459.59 242.352H-502.243V244.368H-462.96L-459.59 242.352ZM-291.139 242.352H-455.645L-459.014 244.368H-294.019L-291.11 242.352M-122.688 242.352H-287.568L-290.477 244.368H-125.107L-122.688 242.352ZM45.7344 242.352H-119.52L-121.939 244.368H43.8049L45.7344 242.352ZM214.128 242.352H48.528L46.5984 244.368H212.688L214.128 242.352ZM382.493 242.352H216.634L215.194 244.368H381.542L382.522 242.352M550.829 242.352H384.739L383.76 244.368H550.31L550.8 242.352M719.05 242.352H552.874L552.384 244.368H719.05V242.352ZM887.242 242.352H721.066V244.368H887.731L887.242 242.352ZM1055.4 242.352H889.315L889.805 244.368H1056.36L1055.38 242.352M1223.48 242.352H1057.62L1058.6 244.368H1224.95L1223.51 242.352M1391.59 242.352H1225.99L1227.43 244.368H1393.52L1391.59 242.352ZM1559.64 242.352H1394.38L1396.31 244.368H1562.05L1559.64 242.352ZM1727.68 242.352H1562.77L1565.19 244.368H1730.56L1727.65 242.352M1895.67 242.352H1731.17L1734.08 244.368H1899.07L1895.7 242.352M1942.3 242.352H1899.65L1903.02 244.368H1942.3V242.352Z" fill="#FF7D36"/>
</g>
<g style="mix-blend-mode:overlay">
<path d="M-547.085 294.509H-592.935V296.525H-550.455L-547.085 294.509ZM-366.135 294.509H-543.139L-546.509 296.525H-369.015L-366.106 294.509M-185.184 294.509H-362.592L-365.501 296.525H-187.632L-185.213 294.509M-4.29132 294.509H-182.045L-184.464 296.525H-6.22095L-4.29132 294.509ZM176.602 294.509H-1.49768L-3.42737 296.525H175.161L176.602 294.509ZM357.465 294.509H179.078L177.638 296.525H356.486L357.465 294.509ZM538.272 294.509H359.683L358.704 296.525H537.754L538.243 294.509M718.992 294.509H540.317L539.827 296.525H718.992V294.509ZM899.683 294.509H721.008V296.525H900.173L899.683 294.509ZM1080.35 294.509H901.757L902.246 296.525H1081.3L1080.32 294.509M1260.92 294.509H1082.56L1083.54 296.525H1262.39L1260.95 294.509M1441.53 294.509H1263.43L1264.87 296.525H1443.46L1441.53 294.509ZM1622.07 294.509H1444.32L1446.25 296.525H1624.49L1622.07 294.509ZM1802.62 294.509H1625.21L1627.63 296.525H1805.5L1802.59 294.509M1983.11 294.509H1806.11L1809.01 296.525H1986.51L1983.14 294.509M2032.93 294.509H1987.08L1990.45 296.525H2032.93V294.509Z" fill="#FF7D36"/>
</g>
<g style="mix-blend-mode:overlay">
<path d="M-648.604 355.075H-698.169V357.091H-652.003L-648.633 355.075M-453.196 355.075H-644.687L-648.057 357.091H-456.076L-453.167 355.075M-257.731 355.075H-449.625L-452.534 357.091H-260.15L-257.731 355.075ZM-62.3225 355.075H-254.591L-257.011 357.091H-64.2521L-62.3225 355.075ZM133.057 355.075H-59.5289L-61.4586 357.091H131.617L133.057 355.075ZM328.407 355.075H135.533L134.093 357.091H327.457L328.436 355.075M523.757 355.075H330.682L329.703 357.091H523.268L523.757 355.075ZM719.022 355.075H525.831L525.342 357.091H719.022V355.075ZM914.228 355.075H721.037V357.091H914.717L914.228 355.075ZM1109.38 355.075H916.302L916.791 357.091H1110.36L1109.38 355.075ZM1304.5 355.075H1111.62L1112.6 357.091H1305.97L1304.53 355.075M1499.62 355.075H1307L1308.44 357.091H1501.52L1499.59 355.075M1694.65 355.075H1502.38L1504.31 357.091H1697.07L1694.65 355.075ZM1889.68 355.075H1697.79L1700.21 357.091H1892.59L1889.68 355.075ZM2084.72 355.075H1893.23L1896.14 357.091H2088.12L2084.75 355.075M2138.23 355.075H2088.66L2092.03 357.091H2138.2V355.075" fill="#FF7D36"/>
</g>
<g style="mix-blend-mode:overlay">
<path d="M-767.836 426.153H-821.721V428.169H-771.205L-767.836 426.153ZM-555.378 426.153H-763.919L-767.289 428.169H-558.287L-555.378 426.153ZM-342.921 426.153H-551.836L-554.745 428.169H-345.34L-342.921 426.153ZM-130.463 426.153H-339.753L-342.172 428.169H-132.393L-130.463 426.153ZM81.9658 426.153H-127.669L-129.599 428.169H80.5258L81.9658 426.153ZM294.366 426.153H84.4713L83.0313 428.169H293.415L294.395 426.153M506.737 426.153H296.612L295.633 428.169H506.219L506.708 426.153M718.993 426.153H508.782L508.292 428.169H718.993V426.153ZM931.22 426.153H721.009V428.169H931.71L931.22 426.153ZM1143.42 426.153H933.294L933.783 428.169H1144.37L1143.39 426.153M1355.53 426.153H1145.64L1146.62 428.169H1357L1355.56 426.153M1567.67 426.153H1358.04L1359.48 428.169H1569.6L1567.67 426.153ZM1779.75 426.153H1570.46L1572.39 428.169H1782.17L1779.75 426.153ZM1991.84 426.153H1782.92L1785.34 428.169H1994.75L1991.84 426.153ZM2203.89 426.153H1995.35L1998.26 428.169H2207.29L2203.92 426.153M2261.75 426.153H2207.87L2211.24 428.169H2261.75V426.153Z" fill="#FF7D36"/>
</g>
<g style="mix-blend-mode:overlay">
<path d="M1364.37 -12.874L1363.22 -11.2036L1367.89 -7.97802L1370.77 -5.96202L1398.18 13.1324L1401.09 15.1484L1431.48 36.2876L1434.36 38.3036L1468.17 61.8044L1471.05 63.8204L1508.83 90.086L1511.71 92.102L1554.13 121.622L1557.04 123.638L1604.94 156.988L1607.85 159.004L1662.34 196.905L1665.22 198.921L1727.65 242.352L1730.53 244.368L1802.65 294.508L1805.53 296.524L1889.65 355.075L1892.56 357.091L1991.84 426.153L1994.75 428.169L2113.52 510.825L2116.43 512.841L2260.89 613.353L2263.8 615.369L2443.02 740.044L2445.9 742.06L2499.15 779.126L2500.3 777.456L2449.44 742.06L2446.53 740.044L2267.31 615.369L2264.43 613.353L2119.94 512.841L2117.06 510.825L1998.26 428.169L1995.38 426.153L1896.08 357.091L1893.2 355.075L1809.07 296.524L1806.16 294.508L1734.08 244.368L1731.17 242.352L1668.76 198.921L1665.85 196.905L1611.39 159.004L1608.48 156.988L1560.56 123.638L1557.68 121.622L1515.25 92.102L1512.35 90.086L1474.59 63.8204L1471.68 61.8044L1437.9 38.3036L1434.99 36.2876L1404.63 15.1484L1401.73 13.1324L1374.31 -5.96202L1371.4 -7.97802L1364.37 -12.874Z" fill="#FF7D36"/>
</g>
<g style="mix-blend-mode:overlay">
<path d="M1257.15 -12.8164L1255.85 -11.2612L1259.8 -7.97801L1262.22 -5.96201L1285.06 13.1324L1287.48 15.1484L1312.79 36.2876L1315.21 38.3036L1343.38 61.8044L1345.8 63.8204L1377.25 90.086L1379.66 92.102L1415 121.622L1417.42 123.638L1457.37 156.988L1459.79 159.004L1505.18 196.905L1507.59 198.921L1559.61 242.352L1562.03 244.368L1622.1 294.508L1624.52 296.524L1694.62 355.075L1697.04 357.091L1779.75 426.153L1782.17 428.169L1881.16 510.825L1883.58 512.841L2003.96 613.353L2006.38 615.369L2155.74 740.044L2158.16 742.06L2202.48 779.068L2203.75 777.513L2161.3 742.06L2158.88 740.044L2009.52 615.369L2007.13 613.353L1886.72 512.841L1884.33 510.825L1785.34 428.169L1782.92 426.153L1700.18 357.091L1697.76 355.075L1627.66 296.524L1625.24 294.508L1565.17 244.368L1562.75 242.352L1510.73 198.921L1508.31 196.905L1462.93 159.004L1460.51 156.988L1420.59 123.638L1418.17 121.622L1382.8 92.102L1380.38 90.086L1348.94 63.8204L1346.52 61.8044L1318.35 38.3036L1315.93 36.2876L1290.62 15.1484L1288.2 13.1324L1265.36 -5.96201L1262.94 -7.97801L1257.15 -12.8164Z" fill="#FF7D36"/>
</g>
<g style="mix-blend-mode:overlay">
<path d="M1149.93 -12.7295L1148.46 -11.3471L1151.71 -7.97749L1153.64 -5.96149L1171.9 13.1329L1173.86 15.1489L1194.11 36.2881L1196.04 38.3041L1218.56 61.8049L1220.49 63.8209L1245.66 90.0865L1247.59 92.1025L1275.87 121.622L1277.8 123.639L1309.74 156.989L1311.7 159.005L1348.01 196.906L1349.94 198.922L1391.56 242.352L1393.49 244.368L1441.56 294.509L1443.49 296.525L1499.56 355.075L1501.49 357.091L1567.67 426.154L1569.6 428.17L1648.8 510.826L1650.73 512.842L1747.04 613.354L1748.97 615.37L1868.46 740.045L1870.39 742.061L1905.75 778.982L1907.22 777.6L1873.18 742.061L1871.25 740.045L1751.76 615.37L1749.83 613.354L1653.52 512.842L1651.59 510.826L1572.39 428.17L1570.46 426.154L1504.28 357.091L1502.35 355.075L1446.28 296.525L1444.35 294.509L1396.28 244.368L1394.32 242.352L1352.74 198.922L1350.81 196.906L1314.46 159.005L1312.53 156.989L1280.59 123.639L1278.66 121.622L1250.38 92.1025L1248.45 90.0865L1223.28 63.8209L1221.35 61.8049L1198.83 38.3041L1196.9 36.2881L1176.62 15.1489L1174.69 13.1329L1156.44 -5.96149L1154.51 -7.97749L1149.93 -12.7295Z" fill="#FF7D36"/>
</g>
<g style="mix-blend-mode:overlay">
<path d="M1042.7 -12.6143L1041.09 -11.4623L1043.6 -7.97746L1045.04 -5.96146L1058.75 13.1329L1060.19 15.1489L1075.39 36.2881L1076.83 38.3041L1093.74 61.8049L1095.18 63.8209L1114.04 90.0865L1115.51 92.1025L1136.71 121.623L1138.18 123.639L1162.11 156.989L1163.58 159.005L1190.82 196.906L1192.26 198.922L1223.45 242.352L1224.92 244.368L1260.95 294.509L1262.42 296.525L1304.47 355.075L1305.91 357.091L1355.56 426.154L1357.03 428.17L1416.41 510.826L1417.85 512.842L1490.08 613.354L1491.52 615.37L1581.15 740.045L1582.59 742.061L1609.06 778.896L1610.7 777.715L1585.1 742.061L1583.63 740.045L1494.03 615.37L1492.56 613.354L1420.33 512.842L1418.89 510.826L1359.5 428.17L1358.04 426.154L1308.41 357.091L1306.94 355.075L1264.9 296.525L1263.46 294.509L1227.4 244.368L1225.96 242.352L1194.74 198.922L1193.3 196.906L1166.06 159.005L1164.62 156.989L1140.65 123.639L1139.18 121.623L1117.99 92.1025L1116.55 90.0865L1097.66 63.8209L1096.22 61.8049L1079.31 38.3041L1077.87 36.2881L1062.66 15.1489L1061.22 13.1329L1047.51 -5.96146L1046.07 -7.97746L1042.7 -12.6143Z" fill="#FF7D36"/>
</g>
<g style="mix-blend-mode:overlay">
<path d="M935.511 -12.4707L933.696 -11.6067L935.424 -7.9779L936.403 -5.9619L945.533 13.1325L946.512 15.1485L956.621 36.2877L957.6 38.3037L968.861 61.8045L969.84 63.8205L982.426 90.0861L983.376 92.1021L997.517 121.622L998.496 123.638L1014.45 156.989L1015.43 159.005L1033.57 196.905L1034.55 198.921L1055.35 242.352L1056.33 244.368L1080.35 294.508L1081.33 296.525L1109.35 355.075L1110.33 357.091L1143.42 426.153L1144.4 428.169L1184 510.825L1184.95 512.841L1233.1 613.353L1234.08 615.369L1293.81 740.045L1294.79 742.061L1312.33 778.723L1314.17 777.859L1297.01 742.061L1296.06 740.045L1236.3 615.369L1235.35 613.353L1187.19 512.841L1186.21 510.825L1146.61 428.169L1145.66 426.153L1112.57 357.091L1111.59 355.075L1083.57 296.525L1082.59 294.508L1058.54 244.368L1057.59 242.352L1036.8 198.921L1035.82 196.905L1017.65 159.005L1016.7 156.989L1000.71 123.638L999.763 121.622L985.623 92.1021L984.643 90.0861L972.058 63.8205L971.107 61.8045L959.847 38.3037L958.867 36.2877L948.73 15.1485L947.78 13.1325L938.65 -5.9619L937.671 -7.9779L935.511 -12.4707Z" fill="#FF7D36"/>
</g>
<g style="mix-blend-mode:overlay">
<path d="M828.289 -12.2686L826.33 -11.8078L827.252 -7.97736L827.741 -5.96135L832.292 13.133L832.781 15.149L837.85 36.2882L838.34 38.3042L843.956 61.805L844.445 63.821L850.724 90.0866L851.213 92.1026L858.298 121.623L858.759 123.639L866.765 156.989L867.226 159.005L876.327 196.906L876.817 198.922L887.213 242.352L887.674 244.368L899.713 294.509L900.202 296.525L914.199 355.075L914.689 357.091L931.249 426.154L931.709 428.17L951.524 510.826L952.013 512.842L976.09 613.354L976.551 615.37L1006.45 740.045L1006.91 742.061L1015.66 778.522L1017.62 778.061L1008.98 742.061L1008.52 740.045L978.624 615.37L978.164 613.354L954.087 512.842L953.597 510.826L933.783 428.17L933.322 426.154L916.762 357.091L916.273 355.075L902.247 296.525L901.786 294.509L889.748 244.368L889.287 242.352L878.89 198.922L878.401 196.906L869.3 159.005L868.839 156.989L860.833 123.639L860.372 121.623L853.287 92.1026L852.797 90.0866L846.519 63.821L846.029 61.805L840.413 38.3042L839.924 36.2882L834.855 15.149L834.365 13.133L829.815 -5.96135L829.325 -7.97736L828.289 -12.2686Z" fill="#FF7D36"/>
</g>
<g style="mix-blend-mode:overlay">
<path d="M721.008 -12.0381H718.992V-7.97729V-5.96129V13.1331V15.1491V36.2883V38.3043V61.8051V63.8211V90.0867V92.1027V121.623V123.639V156.989V159.005V196.906V198.922V242.352V244.368V294.509V296.525V355.076V357.092V426.154V428.17V510.826V512.842V613.354V615.37V740.045V742.061V778.292H721.008V742.061V740.045V615.37V613.354V512.842V510.826V428.17V426.154V357.092V355.076V296.525V294.509V244.368V242.352V198.922V196.906V159.005V156.989V123.639V121.623V92.1027V90.0867V63.8211V61.8051V38.3043V36.2883V15.1491V13.1331V-5.96129V-7.97729V-12.0381Z" fill="#FF7D36"/>
</g>
<g style="mix-blend-mode:overlay">
<path d="M611.742 -12.2686L610.705 -7.97736L610.215 -5.96135L605.636 13.133L605.175 15.149L600.106 36.2882L599.617 38.3042L593.972 61.805L593.511 63.821L587.204 90.0866L586.714 92.1026L579.658 121.623L579.169 123.639L571.191 156.989L570.702 159.005L561.629 196.906L561.14 198.922L550.743 242.352L550.253 244.368L538.244 294.509L537.754 296.525L523.729 355.075L523.239 357.091L506.708 426.154L506.218 428.17L486.433 510.826L485.943 512.842L461.866 613.354L461.377 615.37L431.511 740.045L431.022 742.061L422.41 778.061L424.369 778.522L433.095 742.061L433.585 740.045L463.45 615.37L463.94 613.354L488.017 512.842L488.506 510.826L508.292 428.17L508.782 426.154L525.313 357.091L525.802 355.075L539.828 296.525L540.317 294.509L552.327 244.368L552.817 242.352L563.213 198.922L563.703 196.906L572.775 159.005L573.265 156.989L581.242 123.639L581.732 121.623L588.788 92.1026L589.277 90.0866L595.585 63.821L596.045 61.805L601.69 38.3042L602.18 36.2882L607.249 15.149L607.709 13.133L612.289 -5.96135L612.778 -7.97736L613.7 -11.8078L611.742 -12.2686Z" fill="#FF7D36"/>
</g>
<g style="mix-blend-mode:overlay">
<path d="M504.489 -12.4707L502.329 -7.9779L501.379 -5.9619L492.249 13.1325L491.27 15.1485L481.162 36.2877L480.182 38.3037L468.922 61.8045L467.942 63.8205L455.357 90.0861L454.406 92.1021L440.266 121.622L439.286 123.638L423.331 156.989L422.352 159.005L404.179 196.905L403.229 198.921L382.435 242.352L381.456 244.368L357.437 294.508L356.458 296.525L328.406 355.075L327.456 357.091L294.365 426.153L293.385 428.169L253.785 510.825L252.835 512.841L204.682 613.353L203.702 615.369L143.971 740.045L142.992 742.061L125.856 777.859L127.67 778.723L145.238 742.061L146.189 740.045L205.949 615.369L206.899 613.353L255.053 512.841L256.032 510.825L295.632 428.169L296.582 426.153L329.674 357.091L330.653 355.075L358.704 296.525L359.654 294.508L383.702 244.368L384.653 242.352L405.475 198.921L406.426 196.905L424.598 159.005L425.549 156.989L441.533 123.638L442.483 121.622L456.624 92.1021L457.603 90.0861L470.189 63.8205L471.139 61.8045L482.429 38.3037L483.379 36.2877L493.517 15.1485L494.467 13.1325L503.625 -5.9619L504.576 -7.9779L506.333 -11.6067L504.489 -12.4707Z" fill="#FF7D36"/>
</g>
<g style="mix-blend-mode:overlay">
<path d="M397.296 -12.6143L393.956 -7.97746L392.487 -5.96146L378.778 13.1329L377.338 15.1489L362.16 36.2881L360.691 38.3041L343.815 61.8049L342.346 63.8209L323.482 90.0865L322.013 92.1025L300.816 121.623L299.376 123.639L275.415 156.989L273.975 159.005L246.73 196.906L245.261 198.922L214.071 242.352L212.631 244.368L176.573 294.509L175.104 296.525L133.056 355.075L131.616 357.091L81.9651 426.154L80.5251 428.17L21.1395 510.826L19.6707 512.842L-52.5597 613.354L-53.9997 615.37L-143.625 740.045L-145.065 742.061L-170.668 777.715L-169.027 778.896L-142.588 742.061L-141.148 740.045L-51.5229 615.37L-50.0829 613.354L22.1475 512.842L23.6163 510.826L83.0019 428.17L84.4419 426.154L134.093 357.091L135.533 355.075L177.61 296.525L179.05 294.509L215.107 244.368L216.547 242.352L247.767 198.922L249.207 196.906L276.451 159.005L277.891 156.989L301.853 123.639L303.293 121.623L324.519 92.1025L325.959 90.0865L344.851 63.8209L346.291 61.8049L363.197 38.3041L364.637 36.2881L379.815 15.1489L381.284 13.1329L394.992 -5.96146L396.432 -7.97746L398.938 -11.4623L397.296 -12.6143Z" fill="#FF7D36"/>
</g>
<g style="mix-blend-mode:overlay">
<path d="M290.074 -12.7295L285.523 -7.97749L283.594 -5.96149L265.306 13.1329L263.376 15.1489L243.13 36.2881L241.2 38.3041L218.679 61.8049L216.72 63.8209L191.549 90.0865L189.62 92.1025L161.338 121.622L159.408 123.639L127.469 156.989L125.54 159.005L89.2227 196.906L87.293 198.922L45.6771 242.352L43.7475 244.368L-4.31973 294.509L-6.2493 296.525L-62.3229 355.075L-64.2525 357.091L-130.464 426.154L-132.393 428.17L-211.565 510.826L-213.494 512.842L-309.83 613.354L-311.76 615.37L-431.222 740.045L-433.152 742.061L-467.193 777.6L-465.753 778.982L-430.387 742.061L-428.428 740.045L-308.966 615.37L-307.037 613.354L-210.729 512.842L-208.771 510.826L-129.6 428.17L-127.67 426.154L-61.4589 357.091L-59.5293 355.075L-3.45569 296.525L-1.52612 294.509L46.5411 244.368L48.4707 242.352L90.0867 198.922L92.0163 196.906L128.333 159.005L130.263 156.989L162.202 123.639L164.131 121.622L192.413 92.1025L194.343 90.0865L219.514 63.8209L221.444 61.8049L243.994 38.3041L245.924 36.2881L266.17 15.1489L268.1 13.1329L286.387 -5.96149L288.317 -7.97749L291.543 -11.3471L290.074 -12.7295Z" fill="#FF7D36"/>
</g>
<g style="mix-blend-mode:overlay">
<path d="M182.88 -12.8164L177.062 -7.97801L174.643 -5.96201L151.805 13.1324L149.386 15.1484L124.071 36.2876L121.651 38.3036L93.5136 61.8044L91.0945 63.8204L59.6161 90.086L57.1968 92.102L21.8592 121.622L19.4401 123.638L-20.4766 156.988L-22.8959 159.004L-68.3135 196.905L-70.7327 198.921L-122.746 242.352L-125.136 244.368L-185.241 294.508L-187.632 296.524L-257.731 355.075L-260.15 357.091L-342.893 426.153L-345.312 428.169L-444.297 510.825L-446.717 512.841L-567.101 613.353L-569.52 615.369L-718.877 740.044L-721.296 742.06L-763.747 777.513L-762.451 779.068L-718.157 742.06L-715.737 740.044L-566.381 615.369L-563.961 613.353L-443.577 512.841L-441.158 510.825L-342.173 428.169L-339.754 426.153L-257.011 357.091L-254.592 355.075L-184.493 296.524L-182.074 294.508L-121.997 244.368L-119.578 242.352L-67.5647 198.921L-65.1744 196.905L-19.7567 159.004L-17.3375 156.988L22.5792 123.638L24.9985 121.622L60.3361 92.102L62.7552 90.086L94.2336 63.8204L96.6529 61.8044L124.819 38.3036L127.238 36.2876L152.525 15.1484L154.944 13.1324L177.811 -5.96201L180.202 -7.97801L184.176 -11.2612L182.88 -12.8164Z" fill="#FF7D36"/>
</g>
<g style="mix-blend-mode:overlay">
<path d="M75.6576 -12.874L68.6016 -7.97802L65.6927 -5.96202L38.3041 13.1324L35.3953 15.1484L5.01135 36.2876L2.13135 38.3036L-31.6801 61.8044L-34.5601 63.8204L-72.3456 90.086L-75.2256 92.102L-117.648 121.622L-120.557 123.638L-168.48 156.988L-171.36 159.004L-225.85 196.905L-228.758 198.921L-291.168 242.352L-294.048 244.368L-366.163 294.508L-369.043 296.524L-453.168 355.075L-456.077 357.091L-555.35 426.153L-558.259 428.169L-677.03 510.825L-679.939 512.841L-824.4 613.353L-827.309 615.369L-1006.53 740.044L-1009.44 742.06L-1060.3 777.456L-1059.15 779.126L-1005.9 742.06L-1002.99 740.044L-823.766 615.369L-820.858 613.353L-676.397 512.841L-673.517 510.825L-554.717 428.169L-551.837 426.153L-452.534 357.091L-449.654 355.075L-365.53 296.524L-362.621 294.508L-290.534 244.368L-287.626 242.352L-225.216 198.921L-222.307 196.905L-167.846 159.004L-164.938 156.988L-117.014 123.638L-114.134 121.622L-71.7119 92.102L-68.8031 90.086L-31.0464 63.8204L-28.1375 61.8044L5.6449 38.3036L8.55371 36.2876L38.9376 15.1484L41.8176 13.1324L69.2354 -5.96202L72.1442 -7.97802L76.8097 -11.2036L75.6576 -12.874Z" fill="#FF7D36"/>
</g>
</g>
</svg>
