<?xml version="1.0" encoding="UTF-8" standalone="no"?>
<!DOCTYPE svg PUBLIC "-//W3C//DTD SVG 1.1//EN" "http://www.w3.org/Graphics/SVG/1.1/DTD/svg11.dtd">
<svg width="100%" height="100%" viewBox="0 0 1440 174" version="1.1" xmlns="http://www.w3.org/2000/svg" xmlns:xlink="http://www.w3.org/1999/xlink" xml:space="preserve" xmlns:serif="http://www.serif.com/" style="fill-rule:evenodd;clip-rule:evenodd;stroke-linejoin:round;stroke-miterlimit:2;">
    <path d="M1440,174L0.191,174L0,144.5L0,78.432L32.88,78.432L32.88,62.889L49.161,63.029L49.161,78.848L65.302,78.848L65.302,94.391L80.845,94.391L80.845,78.432L97.734,78.432L97.734,62.889L113.875,62.889L113.875,94.573L129.418,94.573L129.418,78.703L145.003,78.624L145.003,62.483L130.058,62.483L130.058,46.342L145.601,46.342L145.601,30.798L177.883,30.798L177.883,14.657L193.366,14.657L193.366,0.01L208.91,0.01L208.91,15.554L194.025,15.554L194.025,30.798L224.995,30.798L224.995,15.778L241.626,15.778L241.589,31.321L225.709,31.307L225.709,63.678L274.73,63.678L274.73,79.819L290.276,79.819L290.276,63.678L307.016,63.678L307.016,48.733L323.156,48.733L323.156,64.874L355.436,64.874L355.436,96.47L338.956,96.47L338.956,112.013L355.696,112.013L355.696,96.894L370.976,96.894L370.976,64.015L419.996,64.015L419.996,48.471L436.146,48.471L436.146,80.156L452.286,80.156L452.286,64.015L468.426,64.015L468.426,48.471L484.566,48.471L484.566,64.015L500.706,64.015L500.706,31.732L532.986,31.732L532.986,47.873L548.526,47.873L548.526,64.015L532.986,64.015L532.986,80.753L549.126,80.753L549.126,95.699L565.266,95.699L565.266,63.417L580.816,63.417L580.816,47.476L613.096,47.476L613.096,31.933L629.596,31.933L629.596,47.476L710.896,47.476L710.896,63.618L726.646,63.618L726.646,78.432L746.234,78.432L746.234,62.889L762.515,63.029L762.515,78.848L778.656,78.848L778.656,94.391L794.199,94.391L794.199,78.432L811.088,78.432L811.088,62.889L827.229,62.889L827.229,94.573L842.772,94.573L842.772,78.703L858.357,78.624L858.357,62.483L843.412,62.483L843.412,46.342L858.955,46.342L858.955,30.798L891.237,30.798L891.237,14.657L906.72,14.657L906.72,0.01L922.264,0.01L922.264,15.554L907.379,15.554L907.379,30.798L938.349,30.798L938.349,15.778L954.98,15.778L954.943,31.321L939.063,31.307L939.063,63.678L988.084,63.678L988.084,79.819L1003.63,79.819L1003.63,63.678L1020.37,63.678L1020.37,48.733L1036.51,48.733L1036.51,64.874L1068.79,64.874L1068.79,96.47L1052.31,96.47L1052.31,112.013L1069.05,112.013L1069.05,96.894L1084.33,96.894L1084.33,64.015L1133.35,64.015L1133.35,48.471L1149.5,48.471L1149.5,80.156L1165.64,80.156L1165.64,64.015L1181.78,64.015L1181.78,48.471L1197.92,48.471L1197.92,64.015L1214.06,64.015L1214.06,31.732L1246.34,31.732L1246.34,47.873L1261.88,47.873L1261.88,64.015L1246.34,64.015L1246.34,80.753L1262.48,80.753L1262.48,95.699L1278.62,95.699L1278.62,63.417L1294.17,63.417L1294.17,47.476L1326.45,47.476L1326.45,31.933L1342.95,31.933L1342.95,47.476L1424.25,47.476L1424.25,63.618L1440,63.618L1440,174ZM355.436,96.47L355.696,96.47L355.696,96.894L355.436,96.894L355.436,96.47ZM1068.79,96.47L1069.05,96.47L1069.05,96.894L1068.79,96.894L1068.79,96.47ZM177.276,47.733L192.82,47.733L192.82,32.19L177.276,32.19L177.276,47.733ZM710.206,80.454L678.706,80.454L678.706,95.998L694.656,96.115L694.656,111.658L710.206,111.658L710.206,80.454ZM323.316,96.241L338.856,96.241L338.856,80.697L323.316,80.697L323.316,96.241ZM516.846,63.93L532.386,63.93L532.386,48.387L516.846,48.387L516.846,63.93ZM274.758,128.065L290.306,128.065L290.306,112.522L274.758,112.522L274.758,128.065ZM290.446,95.802L305.986,95.802L305.986,80.258L290.446,80.258L290.446,95.802ZM242.373,95.774L256.721,95.774L256.721,80.23L242.373,80.23L242.373,95.774ZM210.124,96.773L210.124,112.316L225.667,112.316L225.667,96.773L210.124,96.773ZM193.473,63.893L209.017,63.893L209.017,48.35L193.473,48.35L193.473,63.893ZM516.586,64.589L501.046,64.589L501.046,80.132L516.586,80.132L516.586,64.589ZM645.616,64.547L630.076,64.547L630.076,95.633L645.616,95.633L645.616,64.547ZM436.466,96.488L436.466,112.031L452.006,112.031L452.006,96.488L436.466,96.488ZM388.016,112.144L403.556,112.144L403.556,96.6L388.016,96.6L388.016,112.144ZM32.198,111.91L47.741,111.91L47.741,96.367L32.198,96.367L32.198,111.91ZM161.574,95.75L177.118,95.75L177.118,80.207L161.574,80.207L161.574,95.75ZM177.304,80.062L177.617,79.679L193.161,79.679L193.161,64.136L177.304,64.136L177.304,80.062ZM452.196,96.231L501.216,96.231L501.216,80.688L484.476,80.688L484.476,63.949L468.936,63.949L468.936,80.688L452.196,80.688L452.196,96.231ZM613.866,63.804L597.536,63.804L597.536,80.543L583.186,80.543L583.186,96.133L598.726,96.133L598.726,111.676L614.276,111.676L614.276,64.743L613.866,64.743L613.866,63.804ZM614.276,64.743L629.406,64.743L629.406,48.004L613.866,48.004L613.866,63.804L614.276,63.804L614.276,64.743ZM1101.37,112.144L1116.91,112.144L1116.91,96.6L1101.37,96.6L1101.37,112.144ZM890.658,80.062L890.971,79.679L906.515,79.679L906.515,64.136L890.658,64.136L890.658,80.062ZM890.63,47.733L906.174,47.733L906.174,32.19L890.63,32.19L890.63,47.733ZM745.552,111.91L761.095,111.91L761.095,96.367L745.552,96.367L745.552,111.91ZM1358.97,64.547L1343.43,64.547L1343.43,95.633L1358.97,95.633L1358.97,64.547ZM1149.82,96.488L1149.82,112.031L1165.36,112.031L1165.36,96.488L1149.82,96.488ZM1230.2,63.93L1245.74,63.93L1245.74,48.387L1230.2,48.387L1230.2,63.93ZM1423.56,80.454L1392.06,80.454L1392.06,95.998L1408.01,96.115L1408.01,111.658L1423.56,111.658L1423.56,80.454ZM906.827,63.893L922.371,63.893L922.371,48.35L906.827,48.35L906.827,63.893ZM1229.94,64.589L1214.4,64.589L1214.4,80.132L1229.94,80.132L1229.94,64.589ZM955.727,95.774L970.075,95.774L970.075,80.23L955.727,80.23L955.727,95.774ZM923.478,96.773L923.478,112.316L939.021,112.316L939.021,96.773L923.478,96.773ZM874.928,95.75L890.472,95.75L890.472,80.207L874.928,80.207L874.928,95.75ZM1003.8,95.802L1019.34,95.802L1019.34,80.258L1003.8,80.258L1003.8,95.802ZM988.112,128.065L1003.66,128.065L1003.66,112.522L988.112,112.522L988.112,128.065ZM1036.67,96.241L1052.21,96.241L1052.21,80.697L1036.67,80.697L1036.67,96.241ZM1165.55,96.231L1214.57,96.231L1214.57,80.688L1197.83,80.688L1197.83,63.949L1182.29,63.949L1182.29,80.688L1165.55,80.688L1165.55,96.231ZM1327.22,63.804L1310.89,63.804L1310.89,80.543L1296.54,80.543L1296.54,96.133L1312.08,96.133L1312.08,111.676L1327.63,111.676L1327.63,64.743L1327.22,64.743L1327.22,63.804ZM1327.63,64.743L1342.76,64.743L1342.76,48.004L1327.22,48.004L1327.22,63.804L1327.63,63.804L1327.63,64.743ZM809.561,63.949L778.124,63.949L778.124,47.304C778.166,47.299 793.445,47.238 793.485,47.238L793.485,32.293L809.626,32.293L809.626,63.949L809.817,63.949L809.817,64.201L809.561,64.201L809.561,63.949ZM858.068,31.672L842.636,31.672L842.636,16.129L858.18,16.129L858.18,31.606L858.325,31.606L858.325,31.863L858.068,31.863L858.068,31.672ZM729.364,16.016L760.759,16.016L760.759,31.102L729.364,31.102L729.364,16.016ZM1213.81,31.606L1198.26,31.606L1198.26,16.063L1213.81,16.063L1213.81,31.606ZM1278.02,16.194L1278.02,31.224L1262.82,31.224L1262.82,16.194L1278.02,16.194ZM1052.69,16.259L1068.06,16.259L1068.06,31.158L1052.69,31.158L1052.69,16.259ZM1101.21,15.955L1116.24,15.955L1116.24,31.148L1101.21,31.148L1101.21,15.955ZM1358.73,31.895L1343.79,31.895L1343.79,15.754L1358.73,15.754L1358.73,31.895ZM955.344,31.863L970.733,31.863L970.733,47.304L955.344,47.304L955.344,31.863ZM1003.01,31.877L1003.01,47.271L988.06,47.271L988.06,31.877L1003.01,31.877ZM970.654,15.727L955.709,15.727L955.788,0.565L970.733,0.565L970.654,15.727ZM1343.48,32.129L1343.48,31.886L1343.77,31.886L1343.77,32.139L1343.76,32.139L1343.76,32.129L1343.74,32.129L1343.48,32.129ZM1343.55,31.947L1343.55,31.943L1343.54,31.942L1343.55,31.947ZM1343.59,31.98L1343.59,31.975L1343.58,31.975L1343.59,31.98ZM96.207,63.949L64.77,63.949L64.77,47.304C64.812,47.299 80.091,47.238 80.131,47.238L80.131,32.293L96.272,32.293L96.272,63.949L96.463,63.949L96.463,64.201L96.207,64.201L96.207,63.949ZM144.714,31.672L129.282,31.672L129.282,16.129L144.826,16.129L144.826,31.606L144.971,31.606L144.971,31.863L144.714,31.863L144.714,31.672ZM16.01,16.016L47.405,16.016L47.405,31.102L16.01,31.102L16.01,16.016ZM500.456,31.606L484.906,31.606L484.906,16.063L500.456,16.063L500.456,31.606ZM564.666,16.194L564.666,31.224L549.466,31.224L549.466,16.194L564.666,16.194ZM339.336,16.259L354.706,16.259L354.706,31.158L339.336,31.158L339.336,16.259ZM387.856,15.955L402.886,15.955L402.886,31.148L387.856,31.148L387.856,15.955ZM645.376,31.895L630.436,31.895L630.436,15.754L645.376,15.754L645.376,31.895ZM241.99,31.863L257.379,31.863L257.379,47.304L241.99,47.304L241.99,31.863ZM289.656,31.877L289.656,47.271L274.706,47.271L274.706,31.877L289.656,31.877ZM257.3,15.727L242.355,15.727L242.434,0.565L257.379,0.565L257.3,15.727ZM630.126,32.129L630.126,31.886L630.416,31.886L630.416,32.139L630.406,32.139L630.406,32.129L630.386,32.129L630.126,32.129ZM630.196,31.947L630.196,31.943L630.186,31.942L630.196,31.947ZM630.236,31.98L630.236,31.975L630.226,31.975L630.236,31.98ZM16.54,47.883L16.54,64.028L0.395,64.028L0.395,47.883L16.54,47.883Z" style="fill:rgb(4,4,4);"/>
</svg>
