<svg width="80" height="80" viewBox="0 0 80 80" fill="none" xmlns="http://www.w3.org/2000/svg">
<g clip-path="url(#clip0_84_2610)">
<path d="M80 50V45V40V35V30V25V20V15H75V10H70H65H60H55H50H45H40H35H30H25H20H15H10H5V15H2.5H0V20V25V30V35V40V45V50V55V60V65V70H5H10H15V65H20H25H30H35H40H45H50H55H60H65V70H70H75H80V65V60V55V50Z" fill="#A56363"/>
<path d="M25 10H20V15H25V10Z" fill="black"/>
<path d="M30 10H25V15H30V10Z" fill="black"/>
<path d="M35 10H30V15H35V10Z" fill="black"/>
<path d="M40 10H35V15H40V10Z" fill="black"/>
<path d="M45 10H40V15H45V10Z" fill="black"/>
<path d="M50 10H45V15H50V10Z" fill="black"/>
<path d="M55 10H50V15H55V10Z" fill="black"/>
<path d="M60 10H55V15H60V10Z" fill="black"/>
<path d="M65 10H60V15H65V10Z" fill="black"/>
<path d="M5 15H10V10H5L5 15Z" fill="black"/>
<path d="M65 15H70V10H65V15Z" fill="black"/>
<path d="M10 15H15V10H10V15Z" fill="black"/>
<path d="M15 15H20V10H15V15Z" fill="black"/>
<path d="M0 25H5L5 20H0L0 25Z" fill="black"/>
<path d="M0 30H5L5 25H0L0 30Z" fill="black"/>
<path d="M0 35H5L5 30H0L0 35Z" fill="black"/>
<path d="M0 40H5L5 35H0L0 40Z" fill="black"/>
<path d="M0 45H5L5 40H0L0 45Z" fill="black"/>
<path d="M0 50H5L5 45H0L0 50Z" fill="black"/>
<path d="M0 55H5L5 50H0L0 55Z" fill="black"/>
<path d="M0 60H5L5 55H0L0 60Z" fill="black"/>
<path d="M0 65H5L5 60H0L0 65Z" fill="black"/>
<path d="M70 15H75V10H70V15Z" fill="black"/>
<path d="M25 35H20V40H25V35Z" fill="black"/>
<path d="M30 35H25V40H30V35Z" fill="black"/>
<path d="M35 35H30V40H35V35Z" fill="black"/>
<path d="M40 35H35V40H40V35Z" fill="black"/>
<path d="M45 35H40V40H45V35Z" fill="black"/>
<path d="M40 45H35V50H40V45Z" fill="black"/>
<path d="M45 45H40V50H45V45Z" fill="black"/>
<path d="M50 35H45V40H50V35Z" fill="black"/>
<path d="M35 40H30V45H35V40Z" fill="black"/>
<path d="M50 40H45V45H50V40Z" fill="black"/>
<path d="M35 45H30V50H35V45Z" fill="black"/>
<path d="M50 45H45V50H50V45Z" fill="black"/>
<path d="M55 35H50V40H55V35Z" fill="black"/>
<path d="M60 35H55V40H60V35Z" fill="black"/>
<path d="M65 35H60V40H65V35Z" fill="black"/>
<path d="M5 40H10V35H5L5 40Z" fill="black"/>
<path d="M65 40H70V35H65V40Z" fill="black"/>
<path d="M10 40H15V35H10V40Z" fill="black"/>
<path d="M15 40H20V35H15V40Z" fill="black"/>
<path d="M70 40H75V35H70V40Z" fill="black"/>
<path d="M0 20H5L5 15H0L0 20Z" fill="black"/>
<path d="M75 20H80V15H75V20Z" fill="black"/>
<path d="M75 25H80V20H75V25Z" fill="black"/>
<path d="M75 30H80V25H75V30Z" fill="black"/>
<path d="M75 35H80V30H75V35Z" fill="black"/>
<path d="M75 40H80V35H75V40Z" fill="black"/>
<path d="M75 45H80V40H75V45Z" fill="black"/>
<path d="M75 50H80V45H75V50Z" fill="black"/>
<path d="M75 55H80V50H75V55Z" fill="black"/>
<path d="M75 60H80V55H75V60Z" fill="black"/>
<path d="M15 65H20V60H15V65Z" fill="black"/>
<path d="M20 65H25V60H20V65Z" fill="black"/>
<path d="M25 65H30V60H25V65Z" fill="black"/>
<path d="M30 65H35V60H30V65Z" fill="black"/>
<path d="M35 65H40V60H35V65Z" fill="black"/>
<path d="M40 65H45V60H40V65Z" fill="black"/>
<path d="M50 60H45V65H50V60Z" fill="black"/>
<path d="M55 60H50V65H55V60Z" fill="black"/>
<path d="M60 60H55V65H60V60Z" fill="black"/>
<path d="M65 60H60V65H65V60Z" fill="black"/>
<path d="M80 60H75V65H80V60Z" fill="black"/>
<path d="M0 70H5L5 65H0L0 70Z" fill="black"/>
<path d="M5 70H10V65H5L5 70Z" fill="black"/>
<path d="M10 70H15V65H10V70Z" fill="black"/>
<path d="M70 65H65V70H70V65Z" fill="black"/>
<path d="M75 65H70V70H75V65Z" fill="black"/>
<path d="M80 65H75V70H80V65Z" fill="black"/>
<path d="M55 40.0699H50V45.0699H55V40.0699Z" fill="#4A2C2C"/>
<path d="M55 45.0699H50V50.0699H55V45.0699Z" fill="#4A2C2C"/>
<path d="M55 50.0699H50V55.0699H55V50.0699Z" fill="#4A2C2C"/>
<path d="M50 50.0699H45V55.0699H50V50.0699Z" fill="#4A2C2C"/>
<path d="M45 50.0699H40V55.0699H45V50.0699Z" fill="#4A2C2C"/>
<path d="M40 50.0699H35V55.0699H40V50.0699Z" fill="#4A2C2C"/>
<path d="M60 40.0699H55V45.0699H60V40.0699Z" fill="#4A2C2C"/>
<path d="M65 40.0699H60V45.0699H65V40.0699Z" fill="#4A2C2C"/>
<path d="M70 40.0699H65V45.0699H70V40.0699Z" fill="#4A2C2C"/>
<path d="M75 40.0699H70V45.0699H75V40.0699Z" fill="#4A2C2C"/>
<path d="M70 60H65V65H70V60Z" fill="#4A2C2C"/>
<path d="M75 60H70V65H75V60Z" fill="#4A2C2C"/>
<path d="M10 60H5V65H10V60Z" fill="#4A2C2C"/>
<path d="M15 60H10V65H15V60Z" fill="#4A2C2C"/>
<path d="M75 55H70V60H75V55Z" fill="#4A2C2C"/>
<path d="M75 50H70V55H75V50Z" fill="#4A2C2C"/>
<path d="M75 45H70V50H75V45Z" fill="#4A2C2C"/>
<path d="M75 15.0699H70V20.0699H75V15.0699Z" fill="#4A2C2C"/>
<path d="M75 30H70V35H75V30Z" fill="#4A2C2C"/>
<path d="M75 25H70V30H75V25Z" fill="#4A2C2C"/>
<path d="M75 20H70V25H75V20Z" fill="#4A2C2C"/>
<path d="M10 40.0699H5V45.0699H10V40.0699Z" fill="#4A2C2C"/>
<path d="M15 40.0699H10V45.0699H15V40.0699Z" fill="#4A2C2C"/>
<path d="M20 40.0699H15V45.0699H20V40.0699Z" fill="#4A2C2C"/>
<path d="M25 40.0699H20V45.0699H25V40.0699Z" fill="#4A2C2C"/>
<path d="M30 40.0699H25V45.0699H30V40.0699Z" fill="#4A2C2C"/>
<path d="M40 40.0699H35V45.0699H40V40.0699Z" fill="#FFCC00"/>
<path d="M45 40.0699H40V45.0699H45V40.0699Z" fill="#FFCC00"/>
</g>
<defs>
<clipPath id="clip0_84_2610">
<rect width="80" height="80" fill="white"/>
</clipPath>
</defs>
</svg>
