<svg width="80" height="80" viewBox="0 0 80 80" fill="none" xmlns="http://www.w3.org/2000/svg">
<g clip-path="url(#clip0_84_2614)">
<path d="M72.5 57.5V12.5H7.5V57.5H2.5V65H77.5V57.5H72.5Z" fill="#E8E8E8"/>
<path d="M75 15H70V20H75V15Z" fill="black"/>
<path d="M75 20H70V25H75V20Z" fill="black"/>
<path d="M75 25H70V30H75V25Z" fill="black"/>
<path d="M75 30H70V35H75V30Z" fill="black"/>
<path d="M75 35H70V40H75V35Z" fill="black"/>
<path d="M75 40H70V45H75V40Z" fill="black"/>
<path d="M65 30H60V35H65V30Z" fill="black"/>
<path d="M65 35H60V40H65V35Z" fill="black"/>
<path d="M65 40H60V45H65V40Z" fill="black"/>
<path d="M75 45H70V50H75V45Z" fill="black"/>
<path d="M75 50H70V55H75V50Z" fill="black"/>
<path d="M80 55H75V60H80V55Z" fill="black"/>
<path d="M80 60H75V65H80V60Z" fill="black"/>
<path d="M75 65H70V70H75V65Z" fill="black"/>
<path d="M70 65H65V70H70V65Z" fill="black"/>
<path d="M65 65H60V70H65V65Z" fill="black"/>
<path d="M60 65H55V70H60V65Z" fill="black"/>
<path d="M55 65H50V70H55V65Z" fill="black"/>
<path d="M50 65H45V70H50V65Z" fill="black"/>
<path d="M5 20H10V15H5L5 20Z" fill="black"/>
<path d="M25 10H20V15H25V10Z" fill="black"/>
<path d="M30 10H25V15H30V10Z" fill="black"/>
<path d="M35 10H30V15H35V10Z" fill="black"/>
<path d="M40 10H35V15H40V10Z" fill="black"/>
<path d="M45 10H40V15H45V10Z" fill="black"/>
<path d="M50 10H45V15H50V10Z" fill="black"/>
<path d="M55 10H50V15H55V10Z" fill="black"/>
<path d="M60 10H55V15H60V10Z" fill="black"/>
<path d="M75 10H70V15H75V10Z" fill="black"/>
<path d="M5 15H10V10H5L5 15Z" fill="black"/>
<path d="M10 15H15V10H10V15Z" fill="black"/>
<path d="M15 15H20V10H15V15Z" fill="black"/>
<path d="M70 10H65V15H70V10Z" fill="black"/>
<path d="M65 10H60V15H65V10Z" fill="black"/>
<path d="M15 30H20V25H15V30Z" fill="black"/>
<path d="M65 25H60V30H65V25Z" fill="black"/>
<path d="M25 20H20V25H25V20Z" fill="black"/>
<path d="M30 20H25V25H30V20Z" fill="black"/>
<path d="M35 20H30V25H35V20Z" fill="black"/>
<path d="M40 20H35V25H40V20Z" fill="black"/>
<path d="M45 20H40V25H45V20Z" fill="black"/>
<path d="M50 20H45V25H50V20Z" fill="black"/>
<path d="M55 20H50V25H55V20Z" fill="black"/>
<path d="M60 20H55V25H60V20Z" fill="black"/>
<path d="M15 25H20V20H15V25Z" fill="black"/>
<path d="M65 20H60V25H65V20Z" fill="black"/>
<path d="M25 45H20V50H25V45Z" fill="black"/>
<path d="M30 45H25V50H30V45Z" fill="black"/>
<path d="M35 45H30V50H35V45Z" fill="black"/>
<path d="M40 45H35V50H40V45Z" fill="black"/>
<path d="M45 45H40V50H45V45Z" fill="black"/>
<path d="M50 45H45V50H50V45Z" fill="black"/>
<path d="M55 45H50V50H55V45Z" fill="black"/>
<path d="M60 45H55V50H60V45Z" fill="black"/>
<path d="M15 50H20V45H15V50Z" fill="black"/>
<path d="M65 45H60V50H65V45Z" fill="black"/>
<path d="M25 55H20V60H25V55Z" fill="black"/>
<path d="M30 55H25V60H30V55Z" fill="black"/>
<path d="M35 55H30V60H35V55Z" fill="black"/>
<path d="M40 55H35V60H40V55Z" fill="black"/>
<path d="M45 55H40V60H45V55Z" fill="black"/>
<path d="M50 55H45V60H50V55Z" fill="black"/>
<path d="M55 55H50V60H55V55Z" fill="black"/>
<path d="M60 55H55V60H60V55Z" fill="black"/>
<path d="M5 60H10V55H5L5 60Z" fill="black"/>
<path d="M10 60H15V55H10V60Z" fill="black"/>
<path d="M15 60H20V55H15V60Z" fill="black"/>
<path d="M75 55H70V60H75V55Z" fill="black"/>
<path d="M70 55H65V60H70V55Z" fill="black"/>
<path d="M65 55H60V60H65V55Z" fill="black"/>
<path d="M5 25H10V20H5L5 25Z" fill="black"/>
<path d="M5 30H10V25H5L5 30Z" fill="black"/>
<path d="M5 35H10V30H5L5 35Z" fill="black"/>
<path d="M5 40H10V35H5L5 40Z" fill="black"/>
<path d="M5 45H10V40H5L5 45Z" fill="black"/>
<path d="M15 35H20V30H15V35Z" fill="black"/>
<path d="M15 40H20V35H15V40Z" fill="black"/>
<path d="M15 45H20V40H15V45Z" fill="black"/>
<path d="M5 50H10V45H5L5 50Z" fill="black"/>
<path d="M5 55H10V50H5L5 55Z" fill="black"/>
<path d="M0 60H5L5 55H0L0 60Z" fill="black"/>
<path d="M0 65H5L5 60H0L0 65Z" fill="black"/>
<path d="M5 70H10V65H5L5 70Z" fill="black"/>
<path d="M10 70H15V65H10V70Z" fill="black"/>
<path d="M15 70H20V65H15V70Z" fill="black"/>
<path d="M20 70H25V65H20V70Z" fill="black"/>
<path d="M25 70H30V65H25V70Z" fill="black"/>
<path d="M30 70H35V65H30V70Z" fill="black"/>
<path d="M45 65H40V70H45V65Z" fill="black"/>
<path d="M40 65H35V70H40V65Z" fill="black"/>
<path d="M70 50H65V55H70V50Z" fill="#CFCFCF"/>
<path d="M65 50H60V55H65V50Z" fill="#CFCFCF"/>
<path d="M60 50H55V55H60V50Z" fill="#CFCFCF"/>
<path d="M55 50H50V55H55V50Z" fill="#CFCFCF"/>
<path d="M50 50H45V55H50V50Z" fill="#CFCFCF"/>
<path d="M45 50H40V55H45V50Z" fill="#CFCFCF"/>
<path d="M40 50H35V55H40V50Z" fill="#CFCFCF"/>
<path d="M35 50H30V55H35V50Z" fill="#CFCFCF"/>
<path d="M30 50H25V55H30V50Z" fill="#CFCFCF"/>
<path d="M25 50H20V55H25V50Z" fill="#CFCFCF"/>
<path d="M25 25H20V30H25V25Z" fill="#CFCFCF"/>
<path d="M30 25H25V30H30V25Z" fill="#CFCFCF"/>
<path d="M35 25H30V30H35V25Z" fill="#CFCFCF"/>
<path d="M40 25H35V30H40V25Z" fill="#CFCFCF"/>
<path d="M45 25H40V30H45V25Z" fill="#CFCFCF"/>
<path d="M50 25H45V30H50V25Z" fill="#CFCFCF"/>
<path d="M55 25H50V30H55V25Z" fill="#CFCFCF"/>
<path d="M60 25H55V30H60V25Z" fill="#CFCFCF"/>
<path d="M25 30H20V35H25V30Z" fill="#CFCFCF"/>
<path d="M25 35H20V40H25V35Z" fill="#CFCFCF"/>
<path d="M25 40H20V45H25V40Z" fill="#CFCFCF"/>
<path d="M20 50H15V55H20V50Z" fill="#CFCFCF"/>
<path d="M20 59.99H15V64.99H20V59.99Z" fill="#CFCFCF"/>
<path d="M25 59.99H20V64.99H25V59.99Z" fill="#CFCFCF"/>
<path d="M30 59.99H25V64.99H30V59.99Z" fill="#CFCFCF"/>
<path d="M35 59.99H30V64.99H35V59.99Z" fill="#CFCFCF"/>
<path d="M40 59.99H35V64.99H40V59.99Z" fill="#CFCFCF"/>
<path d="M45 59.99H40V64.99H45V59.99Z" fill="#CFCFCF"/>
<path d="M50 59.99H45V64.99H50V59.99Z" fill="#CFCFCF"/>
<path d="M55 59.99H50V64.99H55V59.99Z" fill="#CFCFCF"/>
<path d="M60 59.99H55V64.99H60V59.99Z" fill="#CFCFCF"/>
<path d="M65 59.99H60V64.99H65V59.99Z" fill="#CFCFCF"/>
<path d="M70 59.99H65V64.99H70V59.99Z" fill="#CFCFCF"/>
<path d="M75 59.99H70V64.99H75V59.99Z" fill="#CFCFCF"/>
<path d="M70 44.95H65V49.95H70V44.95Z" fill="#CFCFCF"/>
<path d="M70 39.91H65V44.91H70V39.91Z" fill="#CFCFCF"/>
<path d="M70 34.86H65V39.86H70V34.86Z" fill="#CFCFCF"/>
<path d="M70 29.8101H65V34.8101H70V29.8101Z" fill="#CFCFCF"/>
<path d="M70 24.77H65V29.77H70V24.77Z" fill="#CFCFCF"/>
<path d="M70 19.72H65V24.72H70V19.72Z" fill="#CFCFCF"/>
</g>
<defs>
<clipPath id="clip0_84_2614">
<rect width="80" height="80" fill="white"/>
</clipPath>
</defs>
</svg>
