<svg width="80" height="80" viewBox="0 0 80 80" fill="none" xmlns="http://www.w3.org/2000/svg">
<path d="M50 38H55H60V33H65H70V28H75V23H70V21.94V18H65V15.5V13H60V11.72V8H55H50V3H45H40H35V8H30H25V9.2V13H20V18H15V23H10V28V33L5.01001 33.01V38H5V43H5.01001V47.99L10 48V53V58H15V59.25V63H20V64.68V68H25V73H30H35V75.5V78H40H45H50V75.5V73H55H60V70.5V68H65V65.5V63H70V59.25V58H75V53H70V48H65H60V42.99H55H50H45V38H50Z" fill="#FFCC00"/>
<path d="M10 42.99H5V47.99H10V42.99Z" fill="black"/>
<path d="M10 38H5V43H10V38Z" fill="black"/>
<path d="M10 33.01H5V38.01H10V33.01Z" fill="black"/>
<path d="M15 28H10V33H15V28Z" fill="black"/>
<path d="M15 23H10V28H15V23Z" fill="black"/>
<path d="M15 53H10V58H15V53Z" fill="black"/>
<path d="M15 48H10V53H15V48Z" fill="black"/>
<path d="M20 18H15V23H20V18Z" fill="black"/>
<path d="M20 58H15V63H20V58Z" fill="black"/>
<path d="M25 13H20V18H25V13Z" fill="black"/>
<path d="M25 63H20V68H25V63Z" fill="black"/>
<path d="M65 13H60V18H65V13Z" fill="black"/>
<path d="M65 63H60V68H65V63Z" fill="black"/>
<path d="M70 18H65V23H70V18Z" fill="black"/>
<path d="M70 58H65V63H70V58Z" fill="black"/>
<path d="M75 23H70V28H75V23Z" fill="black"/>
<path d="M75 53H70V58H75V53Z" fill="black"/>
<path d="M30 8H25V13H30V8Z" fill="black"/>
<path d="M35 8H30V13H35V8Z" fill="black"/>
<path d="M30 68H25V73H30V68Z" fill="black"/>
<path d="M35 68H30V73H35V68Z" fill="black"/>
<path d="M65 28H60V33H65V28Z" fill="black"/>
<path d="M70 28H65V33H70V28Z" fill="black"/>
<path d="M65 48H60V53H65V48Z" fill="black"/>
<path d="M70 48H65V53H70V48Z" fill="black"/>
<path d="M55 8H50V13H55V8Z" fill="black"/>
<path d="M60 8H55V13H60V8Z" fill="black"/>
<path d="M55 68H50V73H55V68Z" fill="black"/>
<path d="M60 68H55V73H60V68Z" fill="black"/>
<path d="M40 3H35V8H40V3Z" fill="black"/>
<path d="M45 3H40V8H45V3Z" fill="black"/>
<path d="M50 3H45V8H50V3Z" fill="black"/>
<path d="M40 73H35V78H40V73Z" fill="black"/>
<path d="M45 73H40V78H45V73Z" fill="black"/>
<path d="M50 73H45V78H50V73Z" fill="black"/>
<path d="M50 33H45V38H50V33Z" fill="black"/>
<path d="M50 23H45V28H50V23Z" fill="black"/>
<path d="M55 33H50V38H55V33Z" fill="black"/>
<path d="M40 38H35V43H40V38Z" fill="black"/>
<path d="M45 38H40V43H45V38Z" fill="black"/>
<path d="M60 33H55V38H60V33Z" fill="black"/>
<path d="M50 42.99H45V47.99H50V42.99Z" fill="black"/>
<path d="M55 42.99H50V47.99H55V42.99Z" fill="black"/>
<path d="M60 42.99H55V47.99H60V42.99Z" fill="black"/>
<path d="M25 57.99H20V62.99H25V57.99Z" fill="#FFA539"/>
<path d="M65 57.99H60V62.99H65V57.99Z" fill="#FFA539"/>
<path d="M65 23H60V28H65V23Z" fill="#FFA539"/>
<path d="M70 23H65V28H70V23Z" fill="#FFA539"/>
<path d="M70 53H65V58H70V53Z" fill="#FFA539"/>
<path d="M30 63H25V68H30V63Z" fill="#FFA539"/>
<path d="M35 63H30V68H35V63Z" fill="#FFA539"/>
<path d="M55 63H50V68H55V63Z" fill="#FFA539"/>
<path d="M60 63H55V68H60V63Z" fill="#FFA539"/>
<path d="M40 68H35V73H40V68Z" fill="#FFA539"/>
<path d="M45 68H40V73H45V68Z" fill="#FFA539"/>
<path d="M50 68H45V73H50V68Z" fill="#FFA539"/>
</svg>
